<?xml version="1.0" encoding="UTF-8" standalone="no"?>
<!DOCTYPE svg PUBLIC "-//W3C//DTD SVG 1.1//EN"
 "http://www.w3.org/Graphics/SVG/1.1/DTD/svg11.dtd">
<!-- Generated by graphviz version 2.46.1 (20210213.1702)
 -->
<!-- Title: dependencies Pages: 1 -->
<svg width="577pt" height="284pt"
 viewBox="0.00 0.00 577.00 284.00" xmlns="http://www.w3.org/2000/svg" xmlns:xlink="http://www.w3.org/1999/xlink">
<g id="graph0" class="graph" transform="scale(1 1) rotate(0) translate(4 280)">
<title>dependencies</title>
<polygon fill="white" stroke="transparent" points="-4,4 -4,-280 573,-280 573,4 -4,4"/>
<text text-anchor="start" x="263.51" y="-42.4" font-family="sans-serif" font-weight="bold" font-size="14.00">Legend</text>
<polygon fill="#ffffb3" stroke="transparent" points="50.5,-10 50.5,-30 70.5,-30 70.5,-10 50.5,-10"/>
<text text-anchor="start" x="74.13" y="-15.4" font-family="sans-serif" font-size="14.00"> &#160;Declarations</text>
<polygon fill="#8dd3c7" stroke="transparent" points="163.5,-10 163.5,-30 183.5,-30 183.5,-10 163.5,-10"/>
<text text-anchor="start" x="187.23" y="-15.4" font-family="sans-serif" font-size="14.00"> &#160;Module</text>
<polygon fill="#80b1d3" stroke="transparent" points="249.5,-10 249.5,-30 269.5,-30 269.5,-10 249.5,-10"/>
<text text-anchor="start" x="273.28" y="-15.4" font-family="sans-serif" font-size="14.00"> &#160;Bootstrap</text>
<polygon fill="#fdb462" stroke="transparent" points="346.5,-10 346.5,-30 366.5,-30 366.5,-10 346.5,-10"/>
<text text-anchor="start" x="370.17" y="-15.4" font-family="sans-serif" font-size="14.00"> &#160;Providers</text>
<polygon fill="#fb8072" stroke="transparent" points="442.5,-10 442.5,-30 462.5,-30 462.5,-10 442.5,-10"/>
<text text-anchor="start" x="466.23" y="-15.4" font-family="sans-serif" font-size="14.00"> &#160;Exports</text>
<g id="clust1" class="cluster">
<title>cluster_SharedModule</title>
<polygon fill="none" stroke="black" stroke-dasharray="1,5" points="8,-70 8,-268 561,-268 561,-70 8,-70"/>
</g>
<g id="clust6" class="cluster">
<title>cluster_SharedModule_exports</title>
<polygon fill="none" stroke="black" points="16,-208 16,-260 553,-260 553,-208 16,-208"/>
</g>
<g id="clust2" class="cluster">
<title>cluster_SharedModule_declarations</title>
<polygon fill="none" stroke="black" points="156,-78 156,-130 436,-130 436,-78 156,-78"/>
</g>
<!-- BtnComponent -->
<g id="node1" class="node">
<title>BtnComponent</title>
<polygon fill="#ffffb3" stroke="black" points="427.56,-122 326.44,-122 326.44,-86 427.56,-86 427.56,-122"/>
<text text-anchor="middle" x="377" y="-99.8" font-family="Times,serif" font-size="14.00">BtnComponent</text>
</g>
<!-- SharedModule -->
<g id="node3" class="node">
<title>SharedModule</title>
<polygon fill="#8dd3c7" stroke="black" points="355.42,-187 352.42,-191 331.42,-191 328.42,-187 256.58,-187 256.58,-151 355.42,-151 355.42,-187"/>
<text text-anchor="middle" x="306" y="-164.8" font-family="Times,serif" font-size="14.00">SharedModule</text>
</g>
<!-- BtnComponent&#45;&gt;SharedModule -->
<g id="edge1" class="edge">
<title>BtnComponent&#45;&gt;SharedModule</title>
<path fill="none" stroke="black" d="M340.72,-122.11C340.72,-122.11 340.72,-140.99 340.72,-140.99"/>
<polygon fill="black" stroke="black" points="337.22,-140.99 340.72,-150.99 344.22,-140.99 337.22,-140.99"/>
</g>
<!-- TableLightComponent -->
<g id="node2" class="node">
<title>TableLightComponent</title>
<polygon fill="#ffffb3" stroke="black" points="307.54,-122 164.46,-122 164.46,-86 307.54,-86 307.54,-122"/>
<text text-anchor="middle" x="236" y="-99.8" font-family="Times,serif" font-size="14.00">TableLightComponent</text>
</g>
<!-- TableLightComponent&#45;&gt;SharedModule -->
<g id="edge2" class="edge">
<title>TableLightComponent&#45;&gt;SharedModule</title>
<path fill="none" stroke="black" d="M282.28,-122.11C282.28,-122.11 282.28,-140.99 282.28,-140.99"/>
<polygon fill="black" stroke="black" points="278.78,-140.99 282.28,-150.99 285.78,-140.99 278.78,-140.99"/>
</g>
<!-- BtnComponent  -->
<g id="node4" class="node">
<title>BtnComponent </title>
<polygon fill="#fb8072" stroke="black" points="544.56,-252 439.44,-252 439.44,-216 544.56,-216 544.56,-252"/>
<text text-anchor="middle" x="492" y="-229.8" font-family="Times,serif" font-size="14.00">BtnComponent </text>
</g>
<!-- SharedModule&#45;&gt;BtnComponent  -->
<g id="edge3" class="edge">
<title>SharedModule&#45;&gt;BtnComponent </title>
<path fill="none" stroke="black" stroke-dasharray="5,2" d="M355.36,-169C410.46,-169 492,-169 492,-169 492,-169 492,-205.89 492,-205.89"/>
<polygon fill="black" stroke="black" points="488.5,-205.89 492,-215.89 495.5,-205.89 488.5,-205.89"/>
</g>
<!-- IconsModule  -->
<g id="node5" class="node">
<title>IconsModule </title>
<polygon fill="#fb8072" stroke="black" points="421.87,-252 328.13,-252 328.13,-216 421.87,-216 421.87,-252"/>
<text text-anchor="middle" x="375" y="-229.8" font-family="Times,serif" font-size="14.00">IconsModule </text>
</g>
<!-- SharedModule&#45;&gt;IconsModule  -->
<g id="edge4" class="edge">
<title>SharedModule&#45;&gt;IconsModule </title>
<path fill="none" stroke="black" stroke-dasharray="5,2" d="M341.76,-187.11C341.76,-187.11 341.76,-205.99 341.76,-205.99"/>
<polygon fill="black" stroke="black" points="338.26,-205.99 341.76,-215.99 345.26,-205.99 338.26,-205.99"/>
</g>
<!-- TableLightComponent  -->
<g id="node6" class="node">
<title>TableLightComponent </title>
<polygon fill="#fb8072" stroke="black" points="310.54,-252 163.46,-252 163.46,-216 310.54,-216 310.54,-252"/>
<text text-anchor="middle" x="237" y="-229.8" font-family="Times,serif" font-size="14.00">TableLightComponent </text>
</g>
<!-- SharedModule&#45;&gt;TableLightComponent  -->
<g id="edge5" class="edge">
<title>SharedModule&#45;&gt;TableLightComponent </title>
<path fill="none" stroke="black" stroke-dasharray="5,2" d="M283.65,-187.11C283.65,-187.11 283.65,-205.99 283.65,-205.99"/>
<polygon fill="black" stroke="black" points="280.15,-205.99 283.65,-215.99 287.15,-205.99 280.15,-205.99"/>
</g>
<!-- TemplatesModule  -->
<g id="node7" class="node">
<title>TemplatesModule </title>
<polygon fill="#fb8072" stroke="black" points="145.86,-252 24.14,-252 24.14,-216 145.86,-216 145.86,-252"/>
<text text-anchor="middle" x="85" y="-229.8" font-family="Times,serif" font-size="14.00">TemplatesModule </text>
</g>
<!-- SharedModule&#45;&gt;TemplatesModule  -->
<g id="edge6" class="edge">
<title>SharedModule&#45;&gt;TemplatesModule </title>
<path fill="none" stroke="black" stroke-dasharray="5,2" d="M256.68,-169C191.54,-169 85,-169 85,-169 85,-169 85,-205.89 85,-205.89"/>
<polygon fill="black" stroke="black" points="81.5,-205.89 85,-215.89 88.5,-205.89 81.5,-205.89"/>
</g>
</g>
</svg>
