<?xml version="1.0" encoding="UTF-8" standalone="no"?>
<!DOCTYPE svg PUBLIC "-//W3C//DTD SVG 1.1//EN"
 "http://www.w3.org/Graphics/SVG/1.1/DTD/svg11.dtd">
<!-- Generated by graphviz version 2.46.1 (20210213.1702)
 -->
<!-- Title: dependencies Pages: 1 -->
<svg width="873pt" height="211pt"
 viewBox="0.00 0.00 873.00 211.00" xmlns="http://www.w3.org/2000/svg" xmlns:xlink="http://www.w3.org/1999/xlink">
<g id="graph0" class="graph" transform="scale(1 1) rotate(0) translate(4 207)">
<title>dependencies</title>
<polygon fill="white" stroke="transparent" points="-4,4 -4,-207 869,-207 869,4 -4,4"/>
<text text-anchor="start" x="411.51" y="-42.4" font-family="sans-serif" font-weight="bold" font-size="14.00">Legend</text>
<polygon fill="#ffffb3" stroke="transparent" points="198.5,-10 198.5,-30 218.5,-30 218.5,-10 198.5,-10"/>
<text text-anchor="start" x="222.13" y="-15.4" font-family="sans-serif" font-size="14.00"> &#160;Declarations</text>
<polygon fill="#8dd3c7" stroke="transparent" points="311.5,-10 311.5,-30 331.5,-30 331.5,-10 311.5,-10"/>
<text text-anchor="start" x="335.23" y="-15.4" font-family="sans-serif" font-size="14.00"> &#160;Module</text>
<polygon fill="#80b1d3" stroke="transparent" points="397.5,-10 397.5,-30 417.5,-30 417.5,-10 397.5,-10"/>
<text text-anchor="start" x="421.28" y="-15.4" font-family="sans-serif" font-size="14.00"> &#160;Bootstrap</text>
<polygon fill="#fdb462" stroke="transparent" points="494.5,-10 494.5,-30 514.5,-30 514.5,-10 494.5,-10"/>
<text text-anchor="start" x="518.17" y="-15.4" font-family="sans-serif" font-size="14.00"> &#160;Providers</text>
<polygon fill="#fb8072" stroke="transparent" points="590.5,-10 590.5,-30 610.5,-30 610.5,-10 590.5,-10"/>
<text text-anchor="start" x="614.23" y="-15.4" font-family="sans-serif" font-size="14.00"> &#160;Exports</text>
<g id="clust1" class="cluster">
<title>cluster_OrdersModule</title>
<polygon fill="none" stroke="black" stroke-dasharray="1,5" points="8,-70 8,-195 857,-195 857,-70 8,-70"/>
</g>
<g id="clust6" class="cluster">
<title>cluster_OrdersModule_imports</title>
<polygon fill="none" stroke="black" points="574,-78 574,-130 849,-130 849,-78 574,-78"/>
</g>
<g id="clust2" class="cluster">
<title>cluster_OrdersModule_declarations</title>
<polygon fill="none" stroke="black" points="16,-78 16,-130 566,-130 566,-78 16,-78"/>
</g>
<!-- PageAddOrderComponent -->
<g id="node1" class="node">
<title>PageAddOrderComponent</title>
<polygon fill="#ffffb3" stroke="black" points="557.79,-122 392.21,-122 392.21,-86 557.79,-86 557.79,-122"/>
<text text-anchor="middle" x="475" y="-99.8" font-family="Times,serif" font-size="14.00">PageAddOrderComponent</text>
</g>
<!-- OrdersModule -->
<g id="node4" class="node">
<title>OrdersModule</title>
<polygon fill="#8dd3c7" stroke="black" points="523.64,-187 520.64,-191 499.64,-191 496.64,-187 426.36,-187 426.36,-151 523.64,-151 523.64,-187"/>
<text text-anchor="middle" x="475" y="-164.8" font-family="Times,serif" font-size="14.00">OrdersModule</text>
</g>
<!-- PageAddOrderComponent&#45;&gt;OrdersModule -->
<g id="edge1" class="edge">
<title>PageAddOrderComponent&#45;&gt;OrdersModule</title>
<path fill="none" stroke="black" d="M475,-122.11C475,-122.11 475,-140.99 475,-140.99"/>
<polygon fill="black" stroke="black" points="471.5,-140.99 475,-150.99 478.5,-140.99 471.5,-140.99"/>
</g>
<!-- PageEditOrderComponent -->
<g id="node2" class="node">
<title>PageEditOrderComponent</title>
<polygon fill="#ffffb3" stroke="black" points="374.02,-122 209.98,-122 209.98,-86 374.02,-86 374.02,-122"/>
<text text-anchor="middle" x="292" y="-99.8" font-family="Times,serif" font-size="14.00">PageEditOrderComponent</text>
</g>
<!-- PageEditOrderComponent&#45;&gt;OrdersModule -->
<g id="edge2" class="edge">
<title>PageEditOrderComponent&#45;&gt;OrdersModule</title>
<path fill="none" stroke="black" d="M292,-122.02C292,-139.37 292,-163 292,-163 292,-163 415.96,-163 415.96,-163"/>
<polygon fill="black" stroke="black" points="415.96,-166.5 425.96,-163 415.96,-159.5 415.96,-166.5"/>
</g>
<!-- PageListOrdersComponent -->
<g id="node3" class="node">
<title>PageListOrdersComponent</title>
<polygon fill="#ffffb3" stroke="black" points="192.41,-122 23.59,-122 23.59,-86 192.41,-86 192.41,-122"/>
<text text-anchor="middle" x="108" y="-99.8" font-family="Times,serif" font-size="14.00">PageListOrdersComponent</text>
</g>
<!-- PageListOrdersComponent&#45;&gt;OrdersModule -->
<g id="edge3" class="edge">
<title>PageListOrdersComponent&#45;&gt;OrdersModule</title>
<path fill="none" stroke="black" d="M108,-122.28C108,-143.32 108,-175 108,-175 108,-175 416.27,-175 416.27,-175"/>
<polygon fill="black" stroke="black" points="416.27,-178.5 426.27,-175 416.27,-171.5 416.27,-178.5"/>
</g>
<!-- OrdersRoutingModule -->
<g id="node5" class="node">
<title>OrdersRoutingModule</title>
<polygon fill="#8dd3c7" stroke="black" points="841.25,-122 838.25,-126 817.25,-126 814.25,-122 698.75,-122 698.75,-86 841.25,-86 841.25,-122"/>
<text text-anchor="middle" x="770" y="-99.8" font-family="Times,serif" font-size="14.00">OrdersRoutingModule</text>
</g>
<!-- OrdersRoutingModule&#45;&gt;OrdersModule -->
<g id="edge4" class="edge">
<title>OrdersRoutingModule&#45;&gt;OrdersModule</title>
<path fill="none" stroke="black" d="M770,-122.28C770,-143.32 770,-175 770,-175 770,-175 533.71,-175 533.71,-175"/>
<polygon fill="black" stroke="black" points="533.71,-171.5 523.71,-175 533.71,-178.5 533.71,-171.5"/>
</g>
<!-- SharedModule -->
<g id="node6" class="node">
<title>SharedModule</title>
<polygon fill="#8dd3c7" stroke="black" points="680.42,-122 677.42,-126 656.42,-126 653.42,-122 581.58,-122 581.58,-86 680.42,-86 680.42,-122"/>
<text text-anchor="middle" x="631" y="-99.8" font-family="Times,serif" font-size="14.00">SharedModule</text>
</g>
<!-- SharedModule&#45;&gt;OrdersModule -->
<g id="edge5" class="edge">
<title>SharedModule&#45;&gt;OrdersModule</title>
<path fill="none" stroke="black" d="M631,-122.02C631,-139.37 631,-163 631,-163 631,-163 533.93,-163 533.93,-163"/>
<polygon fill="black" stroke="black" points="533.93,-159.5 523.93,-163 533.93,-166.5 533.93,-159.5"/>
</g>
</g>
</svg>
